<svg width="285" height="285" viewBox="0 0 285 285" fill="none" xmlns="http://www.w3.org/2000/svg">
<path d="M195.641 207.516C193.859 209.297 191.781 210.138 189.406 210.039C187.031 209.94 184.953 209 183.172 207.219C181.391 205.438 180.5 203.31 180.5 200.836C180.5 198.362 181.391 196.234 183.172 194.453L235.719 141.906L183.469 89.6563C181.687 87.875 180.846 85.7474 180.945 83.2734C181.044 80.7995 181.984 78.6719 183.766 76.8906C185.547 75.1094 187.674 74.2188 190.148 74.2188C192.622 74.2188 194.75 75.1094 196.531 76.8906L255.016 135.672C256.797 137.453 257.688 139.531 257.688 141.906C257.688 144.281 256.797 146.359 255.016 148.141L195.641 207.516ZM88.7656 206.625L29.9844 148.141C28.2031 146.359 27.3125 144.281 27.3125 141.906C27.3125 139.531 28.2031 137.453 29.9844 135.672L89.3594 76.2969C91.1406 74.5156 93.2682 73.625 95.7422 73.625C98.2161 73.625 100.344 74.5156 102.125 76.2969C103.906 78.0781 104.797 80.2057 104.797 82.6797C104.797 85.1536 103.906 87.2813 102.125 89.0625L49.2813 141.906L101.531 194.156C103.313 195.938 104.203 198.016 104.203 200.391C104.203 202.766 103.313 204.844 101.531 206.625C99.75 208.406 97.6224 209.297 95.1484 209.297C92.6745 209.297 90.5469 208.406 88.7656 206.625Z" fill="white"/>
<path d="M114.045 177V167.386L147.966 120.886H114.08V107.182H169.307V116.795L135.386 163.295H169.273V177H114.045Z" fill="white"/>
</svg>
