<svg width="45" height="45" viewBox="0 0 45 45" fill="none" xmlns="http://www.w3.org/2000/svg">
<path d="M0 22.5C0 10.0736 10.0736 0 22.5 0C34.9264 0 45 10.0736 45 22.5C45 34.9264 34.9264 45 22.5 45C10.0736 45 0 34.9264 0 22.5Z" fill="#F4F3EE"/>
<path d="M18.0001 37.1251C20.6911 37.1251 22.8751 34.941 22.8751 32.25V27.375H18.0001C15.3091 27.375 13.125 29.559 13.125 32.25C13.125 34.941 15.3091 37.1251 18.0001 37.1251Z" fill="#0ACF83"/>
<path d="M13.125 22.5C13.125 19.809 15.3091 17.625 18.0001 17.625H22.8751V27.375H18.0001C15.3091 27.3751 13.125 25.191 13.125 22.5Z" fill="#A259FF"/>
<path d="M13.125 12.75C13.125 10.059 15.3091 7.875 18.0001 7.875H22.8751V17.625H18.0001C15.3091 17.625 13.125 15.441 13.125 12.75Z" fill="#F24E1E"/>
<path d="M22.8749 7.875H27.75C30.441 7.875 32.6251 10.059 32.6251 12.75C32.6251 15.441 30.441 17.625 27.75 17.625H22.8749V7.875Z" fill="#FF7262"/>
<path d="M32.6251 22.5C32.6251 25.191 30.441 27.3751 27.75 27.3751C25.059 27.3751 22.8749 25.191 22.8749 22.5C22.8749 19.809 25.059 17.625 27.75 17.625C30.441 17.625 32.6251 19.809 32.6251 22.5Z" fill="#1ABCFE"/>
</svg>
