<svg width="220" height="220" viewBox="0 0 220 220" fill="none" xmlns="http://www.w3.org/2000/svg">
<path d="M110 220C170.751 220 220 170.751 220 110C220 49.2487 170.751 0 110 0C49.2487 0 0 49.2487 0 110C0 170.751 49.2487 220 110 220Z" fill="#57F287"/>
<path d="M188.1 54.057C186.686 49.8928 182.679 47.1428 178.2 47.1428C177.964 47.1428 177.729 47.1428 177.493 47.1428H169.714L167.279 39.5213C166.179 34.807 161.936 31.4285 157.143 31.4285C152.35 31.4285 148.107 34.807 147.007 39.5999L144.571 47.1428H136.871C136.636 47.1428 136.4 47.1428 136.164 47.1428C131.686 47.1428 127.679 49.8928 126.264 54.057C124.771 58.457 126.579 63.2499 130.664 65.6856L137.5 69.7713L134.357 79.5142C132.55 84.0713 134.043 89.3356 137.893 92.2428C139.7 93.5785 141.9 94.2856 144.021 94.2856C146.457 94.2856 148.814 93.4213 150.779 91.7713L157.143 86.2713L163.507 91.7713C165.471 93.4213 167.829 94.2856 170.264 94.2856C172.386 94.2856 174.586 93.5785 176.393 92.2428C180.321 89.3356 181.736 84.0713 179.929 79.5142L176.864 69.7713L183.7 65.6856C187.707 63.2499 189.514 58.457 188.1 54.057ZM157.143 70.7142C152.821 70.7142 149.286 67.1785 149.286 62.857C149.286 58.5356 152.821 54.9999 157.143 54.9999C161.464 54.9999 165 58.5356 165 62.857C165 67.1785 161.464 70.7142 157.143 70.7142Z" fill="#5865F2"/>
<path d="M121.707 98.293C118.329 94.9144 114.322 92.5573 110 90.9858V78.5715H102.143V89.4144C101.279 89.3358 100.336 89.1787 99.4717 89.1787C91.4575 89.1787 83.3646 92.243 77.236 98.3715C76.2932 99.3144 74.8789 100.729 73.3074 102.3L62.8574 98.3715C50.6003 94.0501 37.086 100.493 32.7646 112.672C30.643 118.564 30.9573 125.007 33.7074 130.664C35.5146 134.436 38.2646 137.5 41.5646 139.779C38.5789 150.386 41.0932 162.172 49.4217 170.5C55.5503 176.629 63.5646 179.693 71.6574 179.693C74.5646 179.693 77.3932 179.143 80.2217 178.357C82.5003 181.657 85.5646 184.407 89.336 186.214C92.5575 187.786 95.936 188.572 99.3932 188.572C102.065 188.572 104.736 188.1 107.329 187.236C119.586 182.914 126.029 169.4 121.629 156.986L117.779 146.772C119.35 145.2 120.765 143.786 121.707 142.843C128.543 136.007 131.45 126.814 130.665 117.936H141.429V110.079H128.936C127.443 105.757 125.086 101.75 121.707 98.293ZM75.2717 163.586C74.0932 163.9 72.9146 164.057 71.6574 164.057C67.4932 164.057 63.486 162.407 60.5789 159.422C57.5932 156.436 55.9432 152.507 55.9432 148.343C55.9432 147.086 56.1789 145.829 56.4146 144.65C57.5146 144.729 58.6146 144.886 59.7146 144.886C66.3932 144.886 72.9146 143.314 78.886 141.114C76.3717 148.107 74.6432 155.807 75.2717 163.586ZM52.4074 127.993C50.4432 127.286 48.8717 125.872 47.9289 123.986C46.986 122.1 46.9074 119.979 47.6146 118.014C49.1074 113.929 53.586 111.807 57.5146 113.222L82.3432 122.572C73.3074 127.286 61.6789 131.293 52.4074 127.993ZM102.065 172.386C100.1 173.093 97.9789 173.014 96.0932 172.072C94.2075 171.207 92.7932 169.557 92.086 167.593C88.786 158.322 92.7932 146.772 97.586 137.736L106.857 162.329C108.272 166.414 106.15 170.972 102.065 172.386ZM111.572 130.429L106.779 117.779C106.779 117.7 106.7 117.622 106.622 117.543C106.465 117.229 106.307 116.914 106.15 116.6C105.993 116.286 105.836 116.05 105.6 115.736C105.365 115.5 105.129 115.264 104.893 115.029C104.657 114.793 104.422 114.557 104.186 114.322C103.95 114.086 103.636 113.929 103.322 113.772C103.007 113.614 102.772 113.379 102.379 113.3C102.3 113.3 102.222 113.222 102.143 113.143L89.5717 108.429C92.4003 106.15 95.7789 104.814 99.4717 104.814C103.636 104.814 107.643 106.464 110.55 109.45C116.286 115.186 116.6 124.222 111.572 130.429Z" fill="#5865F2"/>
</svg>
