<svg width="70" height="70" viewBox="0 0 70 70" fill="none" xmlns="http://www.w3.org/2000/svg">
<circle cx="35" cy="34.9999" r="29.1667" fill="#8A817C"/>
<path d="M9.93677 49.926C13.4873 55.8741 19.0958 60.4515 25.7797 62.6768C27.239 62.9436 27.7708 62.0429 27.7708 61.2694C27.7708 60.9492 27.7654 60.3833 27.7582 59.6261C27.7499 58.7492 27.7391 57.6155 27.7314 56.3097C19.6186 58.0716 17.9068 52.3992 17.9068 52.3992C16.58 49.0312 14.6678 48.1342 14.6678 48.1342C12.0196 46.324 14.8683 46.3598 14.8683 46.3598C17.7958 46.5675 19.3357 49.366 19.3357 49.366C21.9373 53.8226 26.1629 52.5353 27.8245 51.7904C28.0895 49.905 28.8415 48.6194 29.6759 47.8907C23.1996 47.1547 16.3902 44.6516 16.3902 33.4752C16.3902 30.2916 17.5272 27.6882 19.3929 25.6488C19.0921 24.9111 18.0912 21.946 19.6776 17.9299C19.6776 17.9299 22.1271 17.1456 27.6992 20.9201C30.0251 20.2737 32.521 19.9496 35.0009 19.9389C37.4772 19.9496 39.9732 20.2737 42.3026 20.9201C47.8712 17.1456 50.3152 17.9299 50.3152 17.9299C51.907 21.946 50.9061 24.9111 50.6053 25.6488C52.4746 27.6882 53.6044 30.2916 53.6044 33.4752C53.6044 44.6803 46.7843 47.1458 40.2865 47.8674C41.334 48.768 42.2668 50.5478 42.2668 53.2694C42.2668 55.8762 42.2508 58.1467 42.2402 59.6508C42.2349 60.3958 42.231 60.9527 42.231 61.2694C42.231 62.0501 42.7556 62.9579 44.2364 62.6732C49.561 60.8958 54.2024 57.6265 57.6633 53.3608C52.3158 59.9531 44.15 64.1665 35 64.1665C24.3463 64.1665 15.0268 58.4545 9.93677 49.926Z" fill="#F4F3EE"/>
</svg>
