<svg width="45" height="45" viewBox="0 0 45 45" fill="none" xmlns="http://www.w3.org/2000/svg">
<ellipse cx="22.5" cy="22.4999" rx="22.5" ry="22.4999" fill="#463F3A"/>
<path d="M3.1655 34.0145C5.90446 38.6031 10.231 42.1342 15.3872 43.8508C16.5129 44.0566 16.9232 43.3618 16.9232 42.7651C16.9232 42.5181 16.919 42.0816 16.9135 41.4975C16.907 40.8209 16.8987 39.9464 16.8928 38.9391C10.6343 40.2982 9.31382 35.9224 9.31382 35.9224C8.29031 33.3243 6.81513 32.6323 6.81513 32.6323C4.77224 31.2358 6.96983 31.2634 6.96983 31.2634C9.22818 31.4237 10.4161 33.5826 10.4161 33.5826C12.423 37.0205 15.6828 36.0274 16.9646 35.4528C17.169 33.9983 17.7492 33.0066 18.3928 32.4444C13.3968 31.8767 8.14389 29.9457 8.14389 21.324C8.14389 18.8681 9.02099 16.8598 10.4603 15.2865C10.2282 14.7174 9.45609 12.4301 10.6799 9.33192C10.6799 9.33192 12.5694 8.72693 16.8679 11.6386C18.6622 11.14 20.5876 10.89 22.5007 10.8817C24.411 10.89 26.3364 11.14 28.1335 11.6386C32.4292 8.72693 34.3146 9.33192 34.3146 9.33192C35.5425 12.4301 34.7704 14.7174 34.5383 15.2865C35.9804 16.8598 36.852 18.8681 36.852 21.324C36.852 29.9678 31.5907 31.8698 26.5782 32.4265C27.3862 33.1212 28.1058 34.4942 28.1058 36.5937C28.1058 38.6047 28.0935 40.3562 28.0853 41.5165C28.0812 42.0912 28.0782 42.5208 28.0782 42.7651C28.0782 43.3674 28.4829 44.0677 29.6252 43.848C33.7328 42.477 37.3133 39.9549 39.9831 36.6642C35.8579 41.7497 29.5585 45 22.5 45C14.2815 45 7.09209 40.5936 3.1655 34.0145Z" fill="#F4F3EE"/>
</svg>
