<svg width="70" height="70" viewBox="0 0 70 70" fill="none" xmlns="http://www.w3.org/2000/svg">
<circle cx="35" cy="34.9999" r="29.1667" fill="#8A817C"/>
<path d="M35 20.6531C39.6727 20.6531 40.2262 20.671 42.0715 20.7552C43.7777 20.833 44.7043 21.1181 45.321 21.3577C46.1379 21.6752 46.7208 22.0544 47.3332 22.6668C47.9456 23.2792 48.3248 23.8621 48.6423 24.679C48.8819 25.2956 49.167 26.2222 49.2448 27.9285C49.329 29.7738 49.3468 30.3273 49.3468 34.9999C49.3468 39.6726 49.329 40.2261 49.2448 42.0714C49.167 43.7776 48.8819 44.7043 48.6423 45.3209C48.3248 46.1378 47.9456 46.7207 47.3332 47.3331C46.7208 47.9455 46.1379 48.3247 45.321 48.6421C44.7043 48.8818 43.7777 49.1669 42.0715 49.2447C40.2265 49.3289 39.673 49.3467 35 49.3467C30.327 49.3467 29.7736 49.3289 27.9285 49.2447C26.2223 49.1669 25.2957 48.8818 24.679 48.6421C23.8621 48.3247 23.2792 47.9455 22.6668 47.3331C22.0545 46.7207 21.6752 46.1378 21.3577 45.3209C21.1181 44.7043 20.833 43.7776 20.7552 42.0714C20.671 40.2261 20.6531 39.6726 20.6531 34.9999C20.6531 30.3273 20.671 29.7738 20.7552 27.9285C20.833 26.2222 21.1181 25.2956 21.3577 24.679C21.6752 23.8621 22.0544 23.2792 22.6668 22.6668C23.2792 22.0544 23.8621 21.6752 24.679 21.3577C25.2957 21.1181 26.2223 20.833 27.9285 20.7552C29.7738 20.671 30.3273 20.6531 35 20.6531ZM35 17.5C30.2473 17.5 29.6513 17.5201 27.7848 17.6053C25.9221 17.6903 24.65 17.9861 23.5368 18.4187C22.3861 18.8659 21.4101 19.4643 20.4372 20.4372C19.4643 21.4101 18.8659 22.386 18.4188 23.5368C17.9861 24.6499 17.6903 25.9221 17.6053 27.7847C17.5201 29.6513 17.5 30.2472 17.5 34.9999C17.5 39.7526 17.5201 40.3486 17.6053 42.2151C17.6903 44.0778 17.9861 45.3499 18.4188 46.4631C18.8659 47.6138 19.4643 48.5898 20.4372 49.5627C21.4101 50.5356 22.3861 51.134 23.5368 51.5811C24.65 52.0138 25.9221 52.3096 27.7848 52.3946C29.6513 52.4797 30.2473 52.4999 35 52.4999C39.7527 52.4999 40.3487 52.4797 42.2152 52.3946C44.0779 52.3096 45.35 52.0138 46.4632 51.5811C47.6139 51.134 48.5899 50.5356 49.5628 49.5627C50.5357 48.5898 51.1341 47.6138 51.5813 46.4631C52.0139 45.3499 52.3097 44.0778 52.3947 42.2151C52.4799 40.3486 52.5 39.7526 52.5 34.9999C52.5 30.2472 52.4799 29.6513 52.3947 27.7847C52.3097 25.9221 52.0139 24.6499 51.5813 23.5368C51.1341 22.386 50.5357 21.4101 49.5628 20.4372C48.5899 19.4643 47.6139 18.8659 46.4632 18.4187C45.35 17.9861 44.0779 17.6903 42.2152 17.6053C40.3487 17.5201 39.7527 17.5 35 17.5Z" fill="#F4F3EE"/>
<path d="M35.0082 26.0215C30.045 26.0215 26.0216 30.0448 26.0216 35.0079C26.0216 39.9711 30.045 43.9944 35.0082 43.9944C39.9712 43.9944 43.9946 39.9711 43.9946 35.0079C43.9946 30.0448 39.9712 26.0215 35.0082 26.0215ZM35.0082 40.8413C31.7864 40.8413 29.1748 38.2296 29.1748 35.0079C29.1748 31.7863 31.7864 29.1746 35.0082 29.1746C38.2298 29.1746 40.8415 31.7863 40.8415 35.0079C40.8415 38.2296 38.2298 40.8413 35.0082 40.8413Z" fill="#F4F3EE"/>
<path d="M46.4491 25.6611C46.4491 26.8208 45.5088 27.761 44.349 27.761C43.1893 27.761 42.2491 26.8208 42.2491 25.6611C42.2491 24.5013 43.1893 23.561 44.349 23.561C45.5088 23.561 46.4491 24.5013 46.4491 25.6611Z" fill="#F4F3EE"/>
</svg>
