<svg width="70" height="70" viewBox="0 0 70 70" fill="none" xmlns="http://www.w3.org/2000/svg">
<circle cx="35" cy="34.9999" r="29.1667" fill="#8A817C"/>
<path fill-rule="evenodd" clip-rule="evenodd" d="M27.3799 20.8307C27.3799 22.6464 25.9973 24.1159 23.8352 24.1159C21.7574 24.1159 20.3749 22.6464 20.4177 20.8307C20.3749 18.9267 21.7574 17.5 23.8767 17.5C25.9973 17.5 27.3384 18.9267 27.3799 20.8307ZM20.5915 47.8611V26.7111H27.1646V47.8598H20.5915V47.8611Z" fill="#F4F3EE"/>
<path fill-rule="evenodd" clip-rule="evenodd" d="M32.433 33.4608C32.433 30.8228 32.3461 28.5738 32.2592 26.7139H37.9686L38.2721 29.6114H38.4018C39.2669 28.2703 41.4289 26.2393 44.9321 26.2393C49.2562 26.2393 52.5 29.0939 52.5 35.3194V47.8639H45.9269V36.143C45.9269 33.4167 44.9762 31.5582 42.5976 31.5582C40.7805 31.5582 39.7001 32.8124 39.2682 34.0224C39.0944 34.4556 39.0088 35.06 39.0088 35.667V47.8639H32.4357V33.4608H32.433Z" fill="#F4F3EE"/>
</svg>
