<svg width="285" height="289" viewBox="0 0 285 289" fill="none" xmlns="http://www.w3.org/2000/svg">
<path fill-rule="evenodd" clip-rule="evenodd" d="M41.5 216.394V244.5H115.25C115.399 243.074 115.601 241.687 115.858 240.339C122.176 242.303 127.577 244.268 132.06 246.232C137.881 248.692 142.201 251.288 145.02 254.021C147.931 256.662 149.386 259.714 149.386 263.175C149.386 266.455 148.249 269.096 145.975 271.1C143.793 273.013 141.064 274.516 137.79 275.609C134.516 276.612 131.014 277.295 127.285 277.659C123.556 277.932 120.191 278.069 117.19 278.069C106.912 278.069 97.4534 277.021 88.8131 274.926C80.1728 272.74 72.2601 269.871 65.075 266.318C57.8899 262.766 51.387 258.666 45.5662 254.021C39.7453 249.284 34.5612 244.365 30.0136 239.264C25.4661 234.163 21.5098 229.062 18.1446 223.96C14.7794 218.768 11.96 213.94 9.68622 209.477H0.545703V286.404H10.7776L33.97 260.306C40.6094 265.134 47.0668 269.37 53.3424 273.013C59.618 276.566 65.9391 279.526 72.3056 281.895C78.7631 284.263 85.4025 286.04 92.2237 287.224C99.045 288.408 106.321 289 114.052 289C128.149 289 140.564 287.087 151.296 283.261C162.028 279.344 170.987 274.061 178.172 267.411C185.361 260.841 190.774 253.204 194.411 244.5H255.875V170.75C264.208 168.458 271.031 164.5 276.344 158.875C281.656 153.25 284.312 146.271 284.312 137.938C284.312 129.604 281.656 122.26 276.344 115.906C271.031 109.552 264.208 105.229 255.875 102.938V30.125H183.062C180.771 21.7917 176.656 14.8125 170.719 9.1875C164.781 3.5625 157.646 0.75 149.312 0.75C140.979 0.75 133.844 3.5625 127.906 9.1875C121.969 14.8125 117.854 21.7917 115.562 30.125H41.5V94.189C35.7401 96.7488 30.4561 99.8344 25.648 103.446C17.7353 109.367 11.4598 116.7 6.82128 125.445C2.27376 134.19 0 144.164 0 155.368C0 173.313 6.41201 188.526 19.236 201.005C25.1888 206.716 32.6102 211.845 41.5 216.394ZM71.7992 123.483C73.8914 127.644 74.9375 132.254 74.9375 137.312C74.9375 146.271 71.6562 153.823 65.0938 159.969C58.5312 166.115 50.6667 169.708 41.5 170.75V216.394C47.1556 219.288 53.4056 221.947 60.25 224.371V225.75H64.2839C68.8477 227.255 73.659 228.663 78.7176 229.973C90.7231 233.161 101.137 236.03 109.959 238.581C112.007 239.167 113.973 239.753 115.858 240.339C117.401 232.236 120.896 225.551 126.344 220.281C132.698 214.135 140.146 211.063 148.688 211.063C157.229 211.063 164.677 214.135 171.031 220.281C177.385 226.427 181.083 234.5 182.125 244.5H194.411C194.456 244.394 194.499 244.289 194.543 244.183C196.972 238.282 198.591 232.138 199.398 225.75H237.125V152.312H251.188C255.354 152.312 258.792 150.958 261.5 148.25C264.208 145.542 265.562 142.104 265.562 137.938C265.562 133.771 264.208 130.333 261.5 127.625C258.792 124.917 255.354 123.562 251.188 123.562H237.125V48.875H163.688V33.875C163.688 29.7083 162.333 26.2708 159.625 23.5625C156.917 20.8542 153.479 19.5 149.312 19.5C145.146 19.5 141.708 20.8542 139 23.5625C136.292 26.2708 134.938 29.7083 134.938 33.875V48.875H60.25V88.0344C58.0102 88.5511 55.7986 89.1337 53.6153 89.7823C49.3666 91.0189 45.3282 92.4878 41.5 94.189V103.875C47.4076 104.546 52.7744 106.278 57.6004 109.069C58.0052 114.01 62.6795 118.786 71.6235 123.395C71.6819 123.424 71.7404 123.454 71.7992 123.483ZM71.7992 123.483C70.186 120.274 67.9508 117.332 65.0938 114.656C62.7606 112.471 60.2628 110.609 57.6004 109.069C57.5812 108.835 57.5716 108.6 57.5716 108.365C57.5716 105.177 58.7085 102.717 60.9823 100.987C63.256 99.1648 65.9391 97.8439 69.0314 97.0241C70.275 96.7038 71.5257 96.4391 72.7832 96.2301C77.244 99.503 81.1392 103.51 84.4688 108.25C89.5664 115.508 92.5499 123.41 93.4193 131.958C84.6161 129.101 77.4094 126.276 71.7992 123.483ZM72.7832 96.2301C69.0101 93.4618 64.8324 91.2184 60.25 89.5V88.0344C69.0199 86.0115 78.2226 85 87.8581 85C94.0427 85 100.5 85.5465 107.231 86.6396C114.052 87.7327 120.691 89.2358 127.149 91.1487C133.606 93.0616 139.7 95.3845 145.43 98.1172C151.16 100.759 156.162 103.674 160.437 106.862L181.037 86.9129H190.45V146.35H181.855C177.854 139.154 172.715 132.459 166.439 126.265C160.164 120.07 152.979 114.696 144.884 110.141C136.789 105.587 127.831 101.989 118.008 99.347C108.186 96.7053 97.7717 95.3845 86.7667 95.3845C84.6749 95.3845 81.9918 95.4756 78.7176 95.6577C76.7226 95.7132 74.7445 95.904 72.7832 96.2301ZM93.4193 131.958C93.5981 133.716 93.6875 135.5 93.6875 137.312C93.6875 147.938 90.6146 157.625 84.4688 166.375C78.3229 175.125 70.25 181.375 60.25 185.125V224.371C61.5724 224.84 62.917 225.299 64.2839 225.75H100.875C106.083 213.042 113.375 204.292 122.75 199.5C132.125 194.708 140.771 192.313 148.688 192.313C156.604 192.313 165.25 194.708 174.625 199.5C184 204.292 191.292 213.042 196.5 225.75H199.398C199.799 222.572 200 219.334 200 216.036C200 207.473 198.954 199.912 196.862 193.354C194.861 186.795 191.996 180.965 188.267 175.864C184.538 170.763 180.036 166.345 174.761 162.61C169.577 158.784 163.756 155.414 157.299 152.499C150.932 149.493 144.065 146.851 136.699 144.574C129.332 142.206 121.692 139.974 113.779 137.879C106.242 135.89 99.4553 133.917 93.4193 131.958Z" fill="#F4F3EE"/>
</svg>
