<svg width="70" height="70" viewBox="0 0 70 70" fill="none" xmlns="http://www.w3.org/2000/svg">
<circle cx="35" cy="34.9999" r="29.1667" fill="#8A817C"/>
<path fill-rule="evenodd" clip-rule="evenodd" d="M52.5 23.7833C51.2133 24.3549 49.8285 24.7399 48.3761 24.9137C49.8588 24.0248 50.9974 22.6179 51.5329 20.9415C50.147 21.7651 48.6083 22.3612 46.9739 22.6844C45.6638 21.2891 43.7961 20.4165 41.7324 20.4165C37.7671 20.4165 34.552 23.6316 34.552 27.5969C34.552 28.1592 34.6162 28.7074 34.7387 29.2336C28.7704 28.9349 23.4799 26.0756 19.9382 21.7312C19.3199 22.7917 18.9664 24.0248 18.9664 25.3407C18.9664 27.8314 20.2322 30.0292 22.1605 31.3171C20.9823 31.2798 19.8763 30.9566 18.9069 30.4188V30.5087C18.9069 33.9886 21.3836 36.8899 24.6664 37.5514C24.0644 37.7147 23.4298 37.8034 22.7753 37.8034C22.3122 37.8034 21.8619 37.7578 21.4232 37.6739C22.3367 40.5262 24.9895 42.6027 28.1311 42.661C25.6743 44.5859 22.5782 45.735 19.2137 45.735C18.6328 45.735 18.0611 45.7011 17.5 45.6335C20.6778 47.6703 24.4517 48.8603 28.5068 48.8603C41.7137 48.8603 48.9361 37.9188 48.9361 28.431C48.9361 28.1195 48.9302 27.8092 48.9151 27.5024C50.3196 26.4874 51.5376 25.2229 52.5 23.7833Z" fill="#F4F3EE"/>
</svg>
