<svg width="32" height="23" viewBox="0 0 32 23" fill="none" xmlns="http://www.w3.org/2000/svg">
<g clip-path="url(#clip0_6_3847)">
<path d="M0 3C0 1.34315 1.34315 0 3 0H28.5C30.1569 0 31.5 1.34315 31.5 3V19.5C31.5 21.1569 30.1569 22.5 28.5 22.5H3C1.34315 22.5 0 21.1569 0 19.5V3Z" fill="white"/>
<path fill-rule="evenodd" clip-rule="evenodd" d="M0 0H13.5V10.5H0V0Z" fill="#1A47B8"/>
<path fill-rule="evenodd" clip-rule="evenodd" d="M13.5 0V1.5H31.5V0H13.5ZM13.5 3V4.5H31.5V3H13.5ZM13.5 6V7.5H31.5V6H13.5ZM13.5 9V10.5H31.5V9H13.5ZM0 12V13.5H31.5V12H0ZM0 15V16.5H31.5V15H0ZM0 18V19.5H31.5V18H0ZM0 21V22.5H31.5V21H0Z" fill="#F93939"/>
<path fill-rule="evenodd" clip-rule="evenodd" d="M1.5 1.5V3H3V1.5H1.5ZM4.5 1.5V3H6V1.5H4.5ZM7.5 1.5V3H9V1.5H7.5ZM10.5 1.5V3H12V1.5H10.5ZM9 3V4.5H10.5V3H9ZM6 3V4.5H7.5V3H6ZM3 3V4.5H4.5V3H3ZM1.5 4.5V6H3V4.5H1.5ZM4.5 4.5V6H6V4.5H4.5ZM7.5 4.5V6H9V4.5H7.5ZM10.5 4.5V6H12V4.5H10.5ZM1.5 7.5V9H3V7.5H1.5ZM4.5 7.5V9H6V7.5H4.5ZM7.5 7.5V9H9V7.5H7.5ZM10.5 7.5V9H12V7.5H10.5ZM9 6V7.5H10.5V6H9ZM6 6V7.5H7.5V6H6ZM3 6V7.5H4.5V6H3Z" fill="white"/>
</g>
<defs>
<clipPath id="clip0_6_3847">
<path d="M0 3C0 1.34315 1.34315 0 3 0H28.5C30.1569 0 31.5 1.34315 31.5 3V19.5C31.5 21.1569 30.1569 22.5 28.5 22.5H3C1.34315 22.5 0 21.1569 0 19.5V3Z" fill="white"/>
</clipPath>
</defs>
</svg>
